{"glyphs":{"0":{"ha":854,"x_min":76,"x_max":779,"o":"m 779 407 q 753 238 779 315 q 679 105 726 161 q 567 17 632 49 q 428 -14 503 -14 q 287 17 351 -14 q 176 105 222 49 q 103 238 129 161 q 76 407 76 315 q 103 576 76 499 q 176 709 129 653 q 287 797 222 765 q 428 829 351 829 q 567 797 503 829 q 679 709 632 765 q 753 576 726 653 q 779 407 779 499 m 656 407 q 639 532 656 475 q 592 630 622 589 q 519 693 561 671 q 428 715 478 715 q 334 693 376 715 q 262 630 292 671 q 215 532 232 589 q 199 407 199 475 q 215 281 199 338 q 262 185 232 225 q 334 122 292 144 q 428 100 376 100 q 519 122 478 100 q 592 185 561 144 q 639 281 622 225 q 656 407 656 338 z "},"1":{"ha":621,"x_min":63,"x_max":590,"o":"m 590 111 l 590 0 l 92 0 l 92 111 l 289 111 l 289 653 q 250 617 276 636 q 191 583 224 599 q 124 556 158 567 q 63 544 89 544 l 63 661 q 131 678 93 661 q 202 719 168 696 q 260 763 236 742 q 289 793 285 785 l 414 793 l 414 111 l 590 111 z "},"2":{"ha":756,"x_min":67,"x_max":685,"o":"m 67 0 q 76 104 67 56 q 110 197 85 153 q 178 282 135 242 q 293 363 222 322 q 378 406 335 385 q 456 452 421 428 q 515 504 492 476 q 538 569 538 532 q 526 617 538 593 q 494 658 515 640 q 442 688 474 676 q 371 699 411 699 q 295 687 329 699 q 235 658 261 675 q 189 621 208 640 q 157 586 169 601 l 78 675 q 115 709 89 688 q 182 753 142 731 q 275 791 222 775 q 393 807 328 807 q 508 790 457 807 q 595 742 560 772 q 650 670 631 711 q 669 583 669 629 q 646 489 669 529 q 588 418 622 449 q 515 366 554 388 q 446 329 476 344 q 377 292 415 314 q 304 244 339 271 q 244 183 269 217 q 211 111 218 150 l 685 111 l 685 0 l 67 0 z "},"3":{"ha":754,"x_min":50,"x_max":692,"o":"m 499 328 q 640 246 588 313 q 692 81 692 179 q 668 -36 692 17 q 601 -126 644 -89 q 496 -184 557 -164 q 360 -204 435 -204 q 174 -165 254 -204 q 50 -53 94 -125 l 132 29 q 218 -60 164 -28 q 360 -93 272 -93 q 510 -50 456 -93 q 565 81 565 -7 q 506 220 565 168 q 335 272 447 272 l 299 272 l 299 375 l 338 375 q 491 423 438 375 q 544 544 544 471 q 493 654 544 618 q 364 690 442 690 q 230 658 288 690 q 140 567 172 625 l 65 644 q 115 708 83 679 q 187 757 146 736 q 276 789 228 778 q 376 800 324 800 q 497 782 442 800 q 591 732 551 764 q 652 654 631 700 q 674 553 674 608 q 662 474 674 511 q 627 406 650 436 q 572 355 604 375 q 499 328 539 335 z "},"4":{"ha":763,"x_min":29,"x_max":719,"o":"m 475 -176 l 475 58 l 29 58 l 29 167 l 514 793 l 597 793 l 597 169 l 719 169 l 719 58 l 597 58 l 597 -176 l 475 -176 m 156 169 l 488 169 l 488 604 l 156 169 z "},"5":{"ha":767,"x_min":49,"x_max":715,"o":"m 393 436 q 520 413 461 436 q 622 349 579 390 q 690 249 665 307 q 715 121 715 190 q 688 -13 715 47 q 614 -117 661 -74 q 503 -183 567 -160 q 367 -207 439 -207 q 176 -157 261 -207 q 49 -24 92 -107 l 125 43 q 228 -60 164 -21 q 368 -99 293 -99 q 456 -83 415 -99 q 527 -38 497 -67 q 574 31 557 -10 q 590 119 590 71 q 574 204 590 165 q 528 271 557 243 q 461 314 500 299 q 378 329 422 329 q 266 303 318 329 q 181 228 214 276 l 71 228 q 78 263 72 235 q 92 333 83 292 q 110 424 100 374 q 129 525 119 474 q 182 793 153 644 l 661 793 l 661 681 l 272 681 l 213 367 q 289 417 243 399 q 393 436 335 436 z "},"6":{"ha":842,"x_min":72,"x_max":782,"o":"m 782 326 q 755 194 782 256 q 680 85 728 132 q 568 13 632 39 q 429 -14 504 -14 q 284 15 350 -14 q 171 99 218 44 q 98 233 124 154 q 72 411 72 311 q 99 666 72 557 q 174 848 125 775 q 290 957 222 921 q 442 993 358 993 q 616 947 538 993 q 739 818 694 901 l 664 744 q 574 848 633 810 q 440 886 514 886 q 338 860 383 886 q 258 785 292 835 q 207 663 225 735 q 188 500 189 592 q 286 615 218 572 q 442 658 354 658 q 575 633 513 658 q 683 562 638 607 q 756 456 729 517 q 782 326 782 396 m 431 92 q 521 110 478 92 q 596 161 564 129 q 647 235 628 193 q 665 326 665 278 q 647 417 665 374 q 596 491 628 460 q 521 541 564 522 q 431 560 478 560 q 340 541 382 560 q 265 491 297 522 q 215 417 233 460 q 196 326 196 374 q 215 235 196 278 q 265 161 233 193 q 340 110 297 129 q 431 92 382 92 z "},"7":{"ha":774,"x_min":60,"x_max":760,"o":"m 567 697 l 60 697 l 60 810 l 760 810 l 264 -176 l 125 -176 l 567 697 z "},"8":{"ha":832,"x_min":68,"x_max":763,"o":"m 763 279 q 734 159 763 213 q 658 68 706 106 q 547 10 610 31 q 413 -11 483 -11 q 276 12 339 -11 q 167 74 213 35 q 94 168 121 114 q 68 285 68 222 q 85 369 68 331 q 127 439 101 408 q 186 492 153 469 q 253 528 219 515 q 194 560 222 540 q 146 606 167 581 q 113 663 125 632 q 101 728 101 693 q 130 838 101 790 q 203 919 158 886 q 304 969 249 953 q 415 986 360 986 q 527 969 471 986 q 628 920 583 953 q 702 840 674 888 q 731 729 731 792 q 685 607 731 660 q 576 528 639 554 q 648 489 614 513 q 707 434 682 465 q 747 364 732 403 q 763 279 763 325 m 639 288 q 619 367 639 332 q 567 427 599 403 q 494 464 535 451 q 414 476 454 476 q 333 463 372 476 q 262 425 293 450 q 212 365 231 400 q 193 286 193 329 q 213 207 193 242 q 265 149 233 172 q 337 112 297 125 q 417 99 376 99 q 498 113 458 99 q 569 151 538 126 q 619 211 600 176 q 639 288 639 246 m 225 724 q 242 658 225 686 q 288 610 260 629 q 349 581 315 590 q 415 571 382 571 q 482 581 449 571 q 543 611 515 592 q 588 660 571 631 q 606 726 606 689 q 590 789 606 761 q 547 836 574 817 q 486 866 521 856 q 414 876 451 876 q 342 866 376 876 q 283 835 308 856 q 241 787 257 815 q 225 724 225 758 z "},"9":{"ha":818,"x_min":50,"x_max":760,"o":"m 50 453 q 77 585 50 524 q 152 694 104 647 q 264 767 200 740 q 403 793 328 793 q 548 764 482 793 q 661 680 614 735 q 734 547 708 625 q 760 368 760 468 q 733 113 760 222 q 658 -69 707 4 q 542 -178 610 -142 q 390 -214 474 -214 q 216 -168 294 -214 q 93 -39 138 -122 l 168 35 q 258 -69 199 -31 q 392 -107 318 -107 q 574 -6 506 -107 q 644 279 642 96 q 546 164 614 207 q 390 121 478 121 q 257 147 319 121 q 149 217 194 172 q 76 322 103 261 q 50 453 50 383 m 401 688 q 310 669 353 688 q 236 618 268 650 q 185 544 204 586 q 167 453 167 501 q 185 362 167 404 q 236 288 204 319 q 310 238 268 257 q 401 219 353 219 q 492 238 450 219 q 567 288 535 257 q 617 362 599 319 q 636 453 636 404 q 617 543 636 500 q 567 618 599 586 q 492 669 535 650 q 401 688 449 688 z "}," ":{"ha":349,"x_min":0,"x_max":0,"o":""},"Ǽ":{"ha":1372,"x_min":-7,"x_max":1313,"o":"m 788 1104 l 707 1132 l 788 1272 l 910 1272 l 788 1104 m 622 986 l 1300 986 l 1300 875 l 779 875 l 779 558 l 1225 558 l 1225 447 l 779 447 l 779 111 l 1313 111 l 1313 0 l 656 0 l 656 289 l 310 289 l 129 0 l -7 0 l 622 986 m 647 400 l 647 840 l 365 400 l 647 400 z "},"´":{"ha":322,"x_min":67,"x_max":269,"o":"m 147 846 l 67 874 l 147 1014 l 269 1014 l 147 846 z "},"Á":{"ha":942,"x_min":15,"x_max":928,"o":"m 15 0 l 421 986 l 524 986 l 928 0 l 794 0 l 678 289 l 264 289 l 149 0 l 15 0 m 472 842 l 289 386 l 650 386 l 472 842 m 493 1104 l 413 1132 l 493 1272 l 615 1272 l 493 1104 z "},"Ă":{"ha":942,"x_min":15,"x_max":928,"o":"m 15 0 l 421 986 l 524 986 l 928 0 l 794 0 l 678 289 l 264 289 l 149 0 l 15 0 m 472 842 l 289 386 l 650 386 l 472 842 m 472 1178 q 526 1205 503 1178 q 553 1272 549 1232 l 622 1272 q 610 1211 622 1239 q 578 1163 599 1183 q 531 1130 558 1142 q 472 1118 504 1118 q 413 1130 440 1118 q 366 1163 386 1142 q 334 1211 346 1183 q 322 1272 322 1239 l 393 1272 q 417 1206 393 1235 q 472 1178 440 1178 z "},"˘":{"ha":411,"x_min":56,"x_max":356,"o":"m 206 919 q 259 947 236 919 q 286 1014 282 974 l 356 1014 q 344 953 356 981 q 312 904 332 925 q 265 872 292 883 q 206 860 238 860 q 147 872 174 860 q 99 904 119 883 q 67 953 79 925 q 56 1014 56 981 l 126 1014 q 150 948 126 976 q 206 919 174 919 z "},"Â":{"ha":942,"x_min":15,"x_max":928,"o":"m 15 0 l 421 986 l 524 986 l 928 0 l 794 0 l 678 289 l 264 289 l 149 0 l 15 0 m 472 842 l 289 386 l 650 386 l 472 842 m 288 1147 l 428 1272 l 517 1272 l 657 1147 l 590 1114 l 472 1201 l 354 1114 l 288 1147 z "},"ˆ":{"ha":475,"x_min":53,"x_max":422,"o":"m 53 889 l 193 1014 l 282 1014 l 422 889 l 356 856 l 238 943 l 119 856 l 53 889 z "},"Ä":{"ha":942,"x_min":15,"x_max":928,"o":"m 15 0 l 421 986 l 524 986 l 928 0 l 794 0 l 678 289 l 264 289 l 149 0 l 15 0 m 472 842 l 289 386 l 650 386 l 472 842 m 308 1126 l 308 1268 l 411 1268 l 411 1126 l 308 1126 m 533 1126 l 533 1268 l 636 1268 l 636 1126 l 533 1126 z "},"¨":{"ha":511,"x_min":92,"x_max":419,"o":"m 92 867 l 92 1008 l 194 1008 l 194 867 l 92 867 m 317 867 l 317 1008 l 419 1008 l 419 867 l 317 867 z "},"À":{"ha":942,"x_min":15,"x_max":928,"o":"m 15 0 l 421 986 l 524 986 l 928 0 l 794 0 l 678 289 l 264 289 l 149 0 l 15 0 m 472 842 l 289 386 l 650 386 l 472 842 m 328 1274 l 449 1274 l 531 1133 l 451 1106 l 328 1274 z "},"`":{"ha":322,"x_min":67,"x_max":269,"o":"m 67 1014 l 188 1014 l 269 874 l 190 846 l 67 1014 z "},"Ā":{"ha":942,"x_min":15,"x_max":928,"o":"m 15 0 l 421 986 l 524 986 l 928 0 l 794 0 l 678 289 l 264 289 l 149 0 l 15 0 m 472 842 l 289 386 l 650 386 l 472 842 m 269 1167 l 269 1247 l 675 1247 l 675 1167 l 269 1167 z "},"¯":{"ha":560,"x_min":78,"x_max":483,"o":"m 78 908 l 78 989 l 483 989 l 483 908 l 78 908 z "},"Ą":{"ha":942,"x_min":15,"x_max":928,"o":"m 860 -250 q 772 -210 801 -239 q 743 -143 743 -182 q 849 0 743 -71 l 794 0 l 678 289 l 264 289 l 149 0 l 15 0 l 421 986 l 524 986 l 926 1 l 928 1 l 926 1 l 928 0 l 925 0 q 840 -66 865 -36 q 814 -126 814 -96 q 890 -186 814 -178 l 860 -250 m 472 842 l 289 386 l 650 386 l 472 842 z "},"˛":{"ha":354,"x_min":81,"x_max":265,"o":"m 197 -251 q 110 -212 139 -240 q 81 -144 81 -183 q 116 -61 81 -103 q 229 25 151 -19 l 265 0 q 178 -67 204 -37 q 151 -128 151 -97 q 228 -187 151 -179 l 197 -251 l 197 -251 z "},"Å":{"ha":942,"x_min":15,"x_max":928,"o":"m 15 0 l 421 986 l 524 986 l 928 0 l 794 0 l 678 289 l 264 289 l 149 0 l 15 0 m 472 842 l 289 386 l 650 386 l 472 842 m 358 1176 q 390 1247 358 1221 q 471 1272 422 1272 q 552 1247 521 1272 q 583 1176 583 1221 q 552 1106 583 1132 q 471 1081 521 1081 q 390 1106 422 1081 q 358 1176 358 1132 m 471 1229 q 431 1215 447 1229 q 415 1176 415 1200 q 431 1139 415 1154 q 471 1124 447 1124 q 510 1138 493 1124 q 528 1176 528 1153 q 511 1215 528 1200 q 471 1229 494 1229 z "},"˚":{"ha":350,"x_min":63,"x_max":288,"o":"m 63 918 q 94 988 63 963 q 175 1014 126 1014 q 256 988 225 1014 q 288 918 288 963 q 256 848 288 874 q 175 822 225 822 q 94 848 126 822 q 63 918 63 874 m 175 971 q 135 956 151 971 q 119 918 119 942 q 135 881 119 896 q 175 865 151 865 q 215 880 197 865 q 232 918 232 894 q 215 956 232 942 q 175 971 199 971 z "},"Ǻ":{"ha":942,"x_min":15,"x_max":928,"o":"m 522 1125 q 567 1092 550 1114 q 583 1039 583 1071 q 570 990 583 1011 q 533 957 557 968 l 928 0 l 794 0 l 678 289 l 264 289 l 149 0 l 15 0 l 410 956 q 358 1039 358 982 q 383 1102 358 1078 q 449 1133 408 1126 l 515 1275 l 638 1275 l 522 1125 m 472 842 l 289 386 l 650 386 l 472 842 m 471 1092 q 431 1077 447 1092 q 415 1039 415 1063 q 431 1001 415 1017 q 471 986 447 986 q 510 1001 493 986 q 528 1039 528 1015 q 511 1077 528 1063 q 471 1092 494 1092 z "},"Ã":{"ha":942,"x_min":15,"x_max":928,"o":"m 15 0 l 421 986 l 524 986 l 928 0 l 794 0 l 678 289 l 264 289 l 149 0 l 15 0 m 472 842 l 289 386 l 650 386 l 472 842 m 558 1129 q 503 1138 526 1129 q 460 1158 481 1147 q 421 1178 440 1169 q 379 1188 401 1188 q 342 1178 356 1188 q 322 1156 329 1168 q 313 1133 315 1144 q 311 1121 311 1122 l 239 1121 q 245 1153 239 1129 q 267 1201 251 1176 q 308 1245 282 1226 q 376 1264 335 1264 q 428 1255 406 1264 q 470 1234 450 1246 q 510 1213 490 1222 q 556 1204 531 1204 q 597 1214 582 1204 q 621 1236 613 1224 q 631 1259 629 1249 q 633 1272 633 1269 l 706 1272 q 699 1241 706 1264 q 676 1193 693 1218 q 631 1149 660 1168 q 558 1129 603 1129 z "},"˜":{"ha":576,"x_min":56,"x_max":522,"o":"m 375 871 q 320 880 343 871 q 277 900 297 889 q 238 920 257 911 q 196 929 218 929 q 159 919 172 929 q 139 898 146 910 q 130 875 132 886 q 128 863 128 864 l 56 863 q 62 894 56 871 q 83 943 68 918 q 125 987 99 968 q 193 1006 151 1006 q 244 997 222 1006 q 287 976 267 988 q 327 955 307 964 q 372 946 347 946 q 414 956 399 946 q 438 978 429 965 q 448 1001 446 990 q 450 1014 450 1011 l 522 1014 q 516 983 522 1006 q 493 935 510 960 q 448 890 476 910 q 375 871 419 871 z "}}}
